<?xml version="1.0" encoding="UTF-8"?>
<svg width="148px" height="100px" viewBox="0 0 148 100" version="1.1" xmlns="http://www.w3.org/2000/svg" xmlns:xlink="http://www.w3.org/1999/xlink">
    <defs>
        <path d="M30.1817656,21.6400525 L65.0526402,21.5458032 C68.3663366,21.5368469 71.0598788,24.2158681 71.0688351,27.5295645 C71.0688643,27.5403705 71.0688643,27.5511766 71.0688351,27.5619826 L70.9238815,81.243805 C70.9149679,84.5448485 68.2411636,87.2186597 64.9401202,87.2275818 L30.0692456,87.3218311 C26.7555492,87.3307874 24.062007,84.6517662 24.0530507,81.3380698 C24.0530215,81.3272638 24.0530215,81.3164577 24.0530507,81.3056517 L24.1980043,27.6238292 C24.2069179,24.3227858 26.8807222,21.6489746 30.1817656,21.6400525 Z" id="path-1"></path>
        <filter x="-63.8%" y="-36.5%" width="227.6%" height="191.2%" filterUnits="objectBoundingBox" id="filter-2">
            <feOffset dx="0" dy="6" in="SourceAlpha" result="shadowOffsetOuter1"></feOffset>
            <feGaussianBlur stdDeviation="9" in="shadowOffsetOuter1" result="shadowBlurOuter1"></feGaussianBlur>
            <feColorMatrix values="0 0 0 0 0   0 0 0 0 0.0745098039   0 0 0 0 0.0980392157  0 0 0 0.08 0" type="matrix" in="shadowBlurOuter1" result="shadowMatrixOuter1"></feColorMatrix>
            <feOffset dx="0" dy="2" in="SourceAlpha" result="shadowOffsetOuter2"></feOffset>
            <feGaussianBlur stdDeviation="1.5" in="shadowOffsetOuter2" result="shadowBlurOuter2"></feGaussianBlur>
            <feColorMatrix values="0 0 0 0 0   0 0 0 0 0.0745098039   0 0 0 0 0.0980392157  0 0 0 0.16 0" type="matrix" in="shadowBlurOuter2" result="shadowMatrixOuter2"></feColorMatrix>
            <feMerge>
                <feMergeNode in="shadowMatrixOuter1"></feMergeNode>
                <feMergeNode in="shadowMatrixOuter2"></feMergeNode>
            </feMerge>
        </filter>
        <path d="M22.3893483,9.45624179 L57.1840938,9.39475924 C60.4977971,9.3889039 63.1888311,12.0704445 63.1946865,15.3841478 C63.1946989,15.391201 63.194699,15.3982542 63.1946866,15.4053074 L63.1000404,69.1938915 C63.0942241,72.4993346 60.4160947,75.1774839 57.1106517,75.1833246 L22.3159062,75.2448072 C19.0022029,75.2506625 16.3111689,72.5691219 16.3053135,69.2554186 C16.3053011,69.2483654 16.305301,69.2413122 16.3053134,69.234259 L16.3999596,15.4456749 C16.4057759,12.1402318 19.0839053,9.46208253 22.3893483,9.45624179 Z" id="path-3"></path>
        <filter x="-64.0%" y="-36.4%" width="228.0%" height="191.1%" filterUnits="objectBoundingBox" id="filter-4">
            <feOffset dx="0" dy="6" in="SourceAlpha" result="shadowOffsetOuter1"></feOffset>
            <feGaussianBlur stdDeviation="9" in="shadowOffsetOuter1" result="shadowBlurOuter1"></feGaussianBlur>
            <feColorMatrix values="0 0 0 0 0   0 0 0 0 0.0745098039   0 0 0 0 0.0980392157  0 0 0 0.08 0" type="matrix" in="shadowBlurOuter1" result="shadowMatrixOuter1"></feColorMatrix>
            <feOffset dx="0" dy="2" in="SourceAlpha" result="shadowOffsetOuter2"></feOffset>
            <feGaussianBlur stdDeviation="1.5" in="shadowOffsetOuter2" result="shadowBlurOuter2"></feGaussianBlur>
            <feColorMatrix values="0 0 0 0 0   0 0 0 0 0.0745098039   0 0 0 0 0.0980392157  0 0 0 0.16 0" type="matrix" in="shadowBlurOuter2" result="shadowMatrixOuter2"></feColorMatrix>
            <feMerge>
                <feMergeNode in="shadowMatrixOuter1"></feMergeNode>
                <feMergeNode in="shadowMatrixOuter2"></feMergeNode>
            </feMerge>
        </filter>
        <rect id="path-5" x="0" y="0" width="46.7647059" height="65.8307739" rx="6"></rect>
        <filter x="-64.2%" y="-36.5%" width="228.3%" height="191.1%" filterUnits="objectBoundingBox" id="filter-6">
            <feOffset dx="0" dy="6" in="SourceAlpha" result="shadowOffsetOuter1"></feOffset>
            <feGaussianBlur stdDeviation="9" in="shadowOffsetOuter1" result="shadowBlurOuter1"></feGaussianBlur>
            <feColorMatrix values="0 0 0 0 0   0 0 0 0 0.0745098039   0 0 0 0 0.0980392157  0 0 0 0.08 0" type="matrix" in="shadowBlurOuter1" result="shadowMatrixOuter1"></feColorMatrix>
            <feOffset dx="0" dy="2" in="SourceAlpha" result="shadowOffsetOuter2"></feOffset>
            <feGaussianBlur stdDeviation="1.5" in="shadowOffsetOuter2" result="shadowBlurOuter2"></feGaussianBlur>
            <feColorMatrix values="0 0 0 0 0   0 0 0 0 0.0745098039   0 0 0 0 0.0980392157  0 0 0 0.16 0" type="matrix" in="shadowBlurOuter2" result="shadowMatrixOuter2"></feColorMatrix>
            <feMerge>
                <feMergeNode in="shadowMatrixOuter1"></feMergeNode>
                <feMergeNode in="shadowMatrixOuter2"></feMergeNode>
            </feMerge>
        </filter>
        <path d="M15.75,15.75 L15.75,22.75 C15.75,23.716 14.966,24.5 14,24.5 C13.034,24.5 12.25,23.716 12.25,22.75 L12.25,15.75 L5.25,15.75 C4.284,15.75 3.5,14.966 3.5,14 C3.5,13.034 4.284,12.25 5.25,12.25 L12.25,12.25 L12.25,5.25 C12.25,4.284 13.034,3.5 14,3.5 C14.966,3.5 15.75,4.284 15.75,5.25 L15.75,12.25 L22.75,12.25 C23.716,12.25 24.5,13.034 24.5,14 C24.5,14.966 23.716,15.75 22.75,15.75 L15.75,15.75 Z" id="path-7"></path>
    </defs>
    <g id="Artboard" stroke="none" stroke-width="1" fill="none" fill-rule="evenodd">
        <ellipse id="Oval" fill="#00B6F0" opacity="0.159999996" cx="74" cy="53.5" rx="42" ry="42.5"></ellipse>
        <g id="Group" transform="translate(51.000000, 3.000000)">
            <g id="Rectangle-Copy-4" transform="translate(47.560943, 54.433817) scale(-1, 1) rotate(-40.000000) translate(-47.560943, -54.433817) ">
                <use fill="black" fill-opacity="1" filter="url(#filter-2)" xlink:href="#path-1"></use>
                <use fill="#FFFFFF" fill-rule="evenodd" xlink:href="#path-1"></use>
            </g>
            <g id="Rectangle-Copy-3" transform="translate(39.750000, 42.319783) scale(-1, 1) rotate(-20.000000) translate(-39.750000, -42.319783) ">
                <use fill="black" fill-opacity="1" filter="url(#filter-4)" xlink:href="#path-3"></use>
                <use fill="#FFFFFF" fill-rule="evenodd" xlink:href="#path-3"></use>
            </g>
            <g id="Group-4" transform="translate(0.000000, -0.000000)">
                <g id="Rectangle">
                    <use fill="black" fill-opacity="1" filter="url(#filter-6)" xlink:href="#path-5"></use>
                    <use fill="#FFFFFF" fill-rule="evenodd" xlink:href="#path-5"></use>
                </g>
                <g id="Icons-/UI/-Plus-/-Solid" transform="translate(9.352941, 18.789521)">
                    <mask id="mask-8" fill="white">
                        <use xlink:href="#path-7"></use>
                    </mask>
                    <use id="Mask" fill="#00B6F0" fill-rule="evenodd" xlink:href="#path-7"></use>
                </g>
            </g>
        </g>
    </g>
</svg>
